<svg width="110" height="33" class="_theme_light_1rnut_5" viewBox="0 0 429 151" fill="none" xmlns="http://www.w3.org/2000/svg"><path fill-rule="evenodd" clip-rule="evenodd" d="M57.0209 76.9935C61.1444 71.8171 68.437 78.1712 64.6703 83.0767C60.7218 88.2183 52.9114 82.1522 57.0209 76.9935ZM91.5922 54.014C95.8612 48.6187 102.916 55.1909 99.3017 59.9274C95.2697 65.2108 87.4744 59.218 91.5922 54.014ZM85.4671 31.2707C85.6637 29.3881 88.6147 25.0836 90.0854 23.2838C108.486 0.766113 143.19 18.4207 139.55 47.3314C139.338 49.0144 139.045 50.2341 138.757 51.6427C136.47 62.821 129.715 71.2611 128.161 76.1178C125.75 83.6564 135.38 88.5581 140.035 80.9582C142.899 76.2826 148.168 65.8666 149.757 60.7865C150.201 59.3658 150.628 57.905 151.09 56.5811C151.645 54.9872 151.541 53.8719 151.981 52.2932C152.517 50.3686 152.314 49.8652 152.606 47.9562C153.298 43.4166 152.57 35.4724 150.783 29.6912C142.849 4.02822 110.58 -10.3699 86.1739 8.86943C83.3805 11.0714 81.0368 13.7193 79.0911 16.3933C69.6804 29.3242 79.5329 22.1741 65.1934 26.8781C55.082 30.1954 45.7296 37.5099 40.4265 46.1975C39.0334 48.4792 36.7143 47.6527 31.7865 48.6153C17.8994 51.3283 6.50865 61.3153 2.14027 74.3172C1.35073 76.6677 0.460647 80.1952 0.22745 82.6205C-2.73608 113.434 23.8181 131.725 47.3283 131.274C53.1091 131.163 59.2882 130.857 65.436 130.173C75.7137 129.03 74.1093 118.506 66.9822 117.432C65.4118 117.195 53.4243 118.355 48.9308 118.317C45.6774 118.289 42.7966 118.154 40.1022 117.677C30.8428 116.038 21.7923 110.845 16.6873 101.588C7.30235 84.5696 15.9998 62.6483 39.3153 60.6096L41.3846 60.6868C41.0739 63.0078 40.4881 65.133 40.165 67.7367C39.2144 75.3925 41.0369 82.8529 45.2613 90.0102C48.119 94.8525 52.6582 99.4934 56.8939 102.055C60.2694 104.097 67.336 107.392 70.035 107.132C68.6732 104.889 65.0498 100.185 64.3169 98.1358C63.2806 95.2369 66.8824 92.965 69.4257 94.0025C72.6938 95.3359 78.7222 106.579 81.0005 110.3C86.4135 105.643 90.1927 99.5902 91.9781 98.9556C93.4227 98.4419 95.2932 99.233 95.9429 101.192C96.9437 104.209 90.7207 110.733 88.1956 113.101L84.7075 116.387L87.3735 122.361C89.7078 120.59 92.2922 117.684 94.0002 115.491C95.5774 113.466 99.0504 109.717 101.127 114.377C102.229 116.85 99.459 119.58 97.4705 121.914C95.4341 124.303 93.5954 126.289 91.1379 128.527C105.236 151.014 136.384 159.677 156.381 139.357C170.279 125.235 164.459 96.8742 168.615 85.0851C169.339 83.0302 171.782 79.1996 167.937 77.3862C166.13 76.5339 161.606 76.3268 159.497 76.0294C156.322 75.5819 153.111 74.6687 151.605 77.9758C147.671 86.6166 154.114 115.172 148.244 125.333C144.777 131.335 138.018 134.723 132.141 134.545C127.025 134.39 120.887 131.87 116.594 126.074C108.919 115.717 109.586 99.8956 109.124 89.9569C108.986 86.9715 108.71 84.2574 108.482 81.1397C107.971 74.1441 106.323 75.4254 105.194 72.0246C104.001 68.428 107.639 65.0627 110.372 66.8753C111.79 67.8164 115.639 74.1831 116.979 76.1046C117.523 74.8573 118.053 71.06 118.042 69.1249C118.029 66.8765 117.788 64.3015 117.422 61.8021C115.316 47.3911 101.75 34.3079 88.7243 32.1449C86.9861 31.8561 86.9737 32.0477 85.4671 31.2707Z" fill="#008FD7"></path><path fill="#ffffff" d="M201.376 138.907C202.144 139.611 202.8 140.523 203.328 141.611C203.856 142.715 204.144 143.803 204.176 144.907C204.208 145.995 203.968 147.019 203.44 147.979C202.912 148.923 201.968 149.659 200.624 150.155C199.568 150.507 198.4 150.571 197.12 150.363C195.856 150.155 194.592 149.723 193.36 149.083C192.128 148.459 191.024 147.691 190.064 146.811C189.12 145.931 188.432 144.955 188 143.899C187.856 143.531 187.76 143.131 187.68 142.667C187.616 142.219 187.584 141.803 187.584 141.451V82.5873C187.584 80.9553 188.192 79.5791 189.44 78.443C190.672 77.3073 192.032 76.6353 193.52 76.427C194.224 76.3632 194.992 76.4592 195.792 76.7472C196.608 77.0352 197.376 77.435 198.08 77.963C198.784 78.491 199.376 79.115 199.824 79.8192C200.288 80.5233 200.528 81.275 200.528 82.043C200.528 83.8833 200.528 86.3313 200.528 89.3712C200.528 92.411 200.544 95.7393 200.576 99.3393C200.608 102.939 200.624 106.683 200.624 110.523C200.624 114.379 200.608 118.075 200.576 121.611C200.544 125.147 200.528 128.379 200.528 131.323C200.528 134.251 200.48 136.603 200.416 138.379L201.376 138.907ZM249.632 131.275C251.328 130.843 252.832 130.827 254.128 131.211C255.44 131.611 256.448 132.251 257.152 133.179C257.872 134.091 258.192 135.227 258.112 136.571C258.048 137.915 257.44 139.323 256.304 140.811C255.392 142.011 254.112 143.051 252.496 143.899C250.864 144.747 249.344 145.419 247.936 145.915C244.464 147.179 241.184 148.059 238.064 148.555C234.96 149.051 232.032 149.051 229.312 148.555C226.592 148.059 224.048 147.035 221.68 145.483C219.312 143.931 217.104 141.739 215.04 138.907C213.632 137.003 212.592 134.827 211.92 132.379C211.248 129.947 210.88 127.451 210.8 124.907C210.736 122.363 210.944 119.851 211.44 117.371C211.936 114.891 212.64 112.667 213.568 110.683C214.768 108.219 216.672 105.947 219.296 103.899C221.904 101.851 224.8 100.219 227.984 99.0192C231.168 97.8192 234.416 97.1313 237.744 96.9552C241.072 96.779 244 97.2912 246.544 98.4912C248.672 99.4833 250.496 100.907 252.016 102.779C253.536 104.667 254.576 106.699 255.136 108.891C255.712 111.083 255.76 113.291 255.296 115.515C254.848 117.739 253.696 119.771 251.856 121.611C250.08 123.387 248.144 124.811 246.016 125.915C243.904 127.003 241.712 127.963 239.44 128.779C237.184 129.595 234.864 130.283 232.496 130.843C230.128 131.403 227.84 132.043 225.648 132.747C227.136 134.443 228.832 135.531 230.752 135.995C232.656 136.443 234.656 136.539 236.736 136.251C238.832 135.979 240.928 135.387 243.056 134.507C245.168 133.627 247.152 132.651 248.992 131.579L249.632 131.275ZM228.192 113.019C226.576 113.947 225.376 115.099 224.592 116.475C223.808 117.851 223.248 119.771 222.896 122.251C224.736 121.691 226.8 121.083 229.104 120.443C231.392 119.819 233.568 119.147 235.632 118.427C237.68 117.723 239.408 116.955 240.816 116.107C242.24 115.243 242.944 114.331 242.944 113.339C242.944 112.779 242.864 112.235 242.672 111.691C242.496 111.163 242.128 110.795 241.568 110.587C239.584 109.883 237.536 109.739 235.408 110.155C233.296 110.587 231.52 111.179 230.112 111.963L228.192 113.019ZM267.664 110.155C266.24 109.803 265.024 109.211 264 108.363C262.976 107.515 262.272 106.523 261.872 105.387C261.488 104.251 261.488 103.083 261.872 101.883C262.272 100.683 263.136 99.5793 264.48 98.603C265.6 97.7553 266.88 97.3233 268.288 97.3233C269.712 97.3233 271.088 97.3233 272.432 97.3233C272.432 96.827 272.4 95.7551 272.32 94.091C272.256 92.4273 272.24 90.6033 272.272 88.619C272.304 86.651 272.432 84.7473 272.64 82.955C272.848 81.1473 273.248 79.8993 273.808 79.1793C275.232 77.2113 276.976 76.2672 279.056 76.379C281.152 76.475 282.864 77.483 284.208 79.403C284.496 79.7553 284.752 80.171 285.008 80.6673C285.248 81.1632 285.376 81.6273 285.376 82.043C285.44 84.587 285.456 87.1473 285.424 89.6913C285.392 92.2353 285.376 94.7793 285.376 97.3233H293.76C295.024 97.3233 296.128 97.7553 297.04 98.603C297.968 99.4512 298.608 100.443 299.008 101.563C299.392 102.699 299.504 103.867 299.328 105.067C299.152 106.267 298.592 107.259 297.68 108.043C296.048 109.387 294.16 110.091 292 110.155C289.84 110.235 287.632 110.267 285.376 110.267C285.376 114.155 285.36 118.043 285.312 121.931C285.28 125.819 285.296 129.707 285.376 133.595C285.376 135.307 285.456 137.035 285.632 138.795C285.808 140.571 285.696 142.267 285.264 143.899C284.912 145.163 284.304 146.171 283.456 146.923C282.608 147.659 281.664 148.123 280.592 148.299C279.536 148.475 278.448 148.395 277.312 148.075C276.176 147.771 275.12 147.179 274.128 146.331C273.632 145.835 273.264 144.987 273.008 143.787C272.768 142.587 272.608 141.307 272.544 139.963C272.464 138.411 272.464 136.747 272.544 134.987C272.544 133.563 272.544 131.723 272.544 129.467C272.544 127.195 272.512 124.843 272.48 122.411C272.448 119.979 272.432 117.659 272.432 115.467C272.432 113.275 272.432 111.531 272.432 110.267L267.664 110.155ZM319.632 142.619C319.2 144.955 318.288 146.635 316.864 147.659C315.456 148.683 313.984 149.163 312.464 149.083C310.944 149.019 309.6 148.395 308.432 147.227C307.264 146.059 306.688 144.459 306.688 142.411V83.435C306.688 81.803 307.328 80.4273 308.592 79.2912C309.872 78.155 311.28 77.4513 312.848 77.1633C314.4 76.8912 315.84 77.1312 317.184 77.915C318.528 78.683 319.28 80.1393 319.424 82.2672C319.696 85.931 319.824 89.531 319.792 93.035C319.76 96.5232 319.696 100.043 319.632 103.579C322.24 101.819 324.976 100.635 327.792 100.027C330.624 99.4353 333.344 99.4512 335.968 100.075C338.576 100.715 341.024 101.995 343.28 103.899C345.552 105.803 347.392 108.459 348.8 111.851C349.792 114.123 350.464 116.539 350.816 119.115C351.168 121.707 351.36 124.315 351.392 126.971C351.44 129.627 351.392 132.251 351.296 134.875C351.184 137.499 351.136 139.963 351.136 142.299C351.136 143.787 350.752 145.131 349.968 146.331C349.184 147.531 348.224 148.411 347.056 148.987C345.888 149.547 344.64 149.723 343.344 149.515C342.032 149.307 340.848 148.523 339.792 147.179C338.72 145.771 338.064 144.107 337.824 142.187C337.568 140.283 337.504 138.251 337.616 136.091C337.712 133.931 337.872 131.723 338.08 129.467C338.304 127.195 338.352 125.035 338.24 122.939C338.144 120.859 337.728 118.923 337.024 117.163C336.32 115.387 335.088 113.947 333.312 112.811C331.904 112.603 330.624 112.683 329.488 113.083C328.368 113.467 327.344 114.043 326.416 114.827C325.504 115.611 324.64 116.491 323.824 117.483C323.008 118.475 322.176 119.451 321.328 120.443C321.12 120.795 320.864 121.131 320.592 121.451C320.304 121.771 319.984 122.107 319.632 122.459V142.619ZM406.176 140.811C406.752 142.859 406.64 144.571 405.856 145.915C405.088 147.243 404 148.155 402.624 148.619C401.248 149.067 399.744 149.019 398.112 148.459C396.496 147.883 395.072 146.763 393.872 145.051C391.904 146.539 389.968 147.579 388.096 148.187C386.224 148.795 384.08 149.131 381.68 149.195C378.064 149.339 374.848 148.923 372.032 147.979C369.2 147.019 366.816 145.595 364.864 143.675C362.912 141.771 361.488 139.387 360.56 136.523C359.648 133.659 359.328 130.347 359.616 126.603C359.76 125.051 360.016 123.531 360.416 122.043C360.8 120.555 361.232 119.099 361.728 117.691C362.304 116.139 363.104 114.475 364.128 112.699C365.152 110.939 366.192 109.419 367.248 108.139C371.072 103.483 375.84 100.123 381.568 98.0592C382.56 97.7073 383.904 97.3872 385.6 97.115C387.296 96.827 389.008 96.6993 390.752 96.7473C392.48 96.779 394.144 97.0031 395.728 97.4351C397.328 97.8513 398.512 98.603 399.28 99.659C399.92 100.507 400.384 101.243 400.672 101.883C400.944 102.523 401.104 103.195 401.136 103.899C401.184 104.603 401.184 105.371 401.136 106.187C401.104 106.987 401.088 107.995 401.088 109.211C401.088 111.179 401.072 113.115 401.04 114.987C401.008 116.859 401.024 118.747 401.088 120.667C401.088 121.291 401.088 122.123 401.088 123.147C401.088 124.187 401.12 125.259 401.2 126.395C401.264 127.515 401.36 128.603 401.456 129.627C401.568 130.651 401.728 131.483 401.936 132.123L406.176 140.811ZM383.696 136.043C384.464 135.547 385.36 135.003 386.352 134.395C387.328 133.803 388.224 133.115 388.992 132.331C388.368 128.587 387.984 124.827 387.888 121.083C387.776 117.339 387.792 113.547 387.936 109.739C384.752 110.299 381.888 111.675 379.344 113.867C376.8 116.059 375.024 118.651 374.032 121.611C373.616 122.811 373.264 124.059 372.976 125.323C372.704 126.603 372.592 127.835 372.656 129.035C372.736 130.667 373.152 132.027 373.936 133.131C374.704 134.219 375.648 135.051 376.752 135.611C377.84 136.187 379.008 136.507 380.24 136.571C381.488 136.651 382.624 136.459 383.696 136.043ZM427.92 142.507C427.792 143.931 427.296 145.179 426.448 146.283C425.6 147.371 424.624 148.171 423.52 148.667C422.432 149.163 421.248 149.259 419.968 148.987C418.704 148.699 417.568 147.915 416.576 146.651C416.016 145.947 415.6 145.147 415.36 144.267C415.104 143.387 414.944 142.459 414.88 141.499C414.8 140.555 414.784 139.595 414.832 138.635C414.864 137.691 414.88 136.827 414.88 136.043C414.8 131.867 414.784 127.739 414.832 123.627C414.864 119.531 414.848 115.387 414.768 111.227C414.768 109.515 414.672 107.803 414.448 106.075C414.24 104.347 414.352 102.635 414.768 100.923C415.12 99.659 415.744 98.555 416.624 97.643C417.52 96.7151 418.496 96.0912 419.6 95.7393C420.688 95.387 421.824 95.339 422.992 95.627C424.16 95.915 425.168 96.6513 426.016 97.8513C427.152 99.275 427.712 100.667 427.712 102.043C427.712 103.419 427.712 105.099 427.712 107.083C427.712 109.483 427.712 111.899 427.712 114.299C427.712 116.699 427.744 119.067 427.824 121.403C427.888 124.795 427.92 128.187 427.92 131.579C427.92 134.987 427.92 138.379 427.92 141.771V142.507ZM413.92 82.1553C414.208 79.5312 415.104 77.6112 416.624 76.379C418.144 75.131 419.76 74.5392 421.456 74.5713C423.152 74.603 424.72 75.2592 426.176 76.5393C427.632 77.8032 428.384 79.6113 428.464 81.947C428.592 84.347 427.984 86.2032 426.592 87.515C425.216 88.8273 423.648 89.5632 421.872 89.7393C420.112 89.915 418.448 89.435 416.896 88.3152C415.344 87.179 414.384 85.3713 414.032 82.8912L413.92 82.1553Z"></path></svg>